<?xml version="1.0" encoding="UTF-8" standalone="no"?>
<svg
   version="1.1"
   viewBox="-5 -10 96.157379 99.999992"
   id="svg2"
   sodipodi:docname="jazz.svg"
   width="96.157379"
   height="99.999992"
   inkscape:export-filename="dance-000.svg"
   inkscape:export-xdpi="87.272728"
   inkscape:export-ydpi="87.272728"
   xml:space="preserve"
   xmlns:inkscape="http://www.inkscape.org/namespaces/inkscape"
   xmlns:sodipodi="http://sodipodi.sourceforge.net/DTD/sodipodi-0.dtd"
   xmlns="http://www.w3.org/2000/svg"
   xmlns:svg="http://www.w3.org/2000/svg"><defs
     id="defs2" /><sodipodi:namedview
     id="namedview2"
     pagecolor="#505050"
     bordercolor="#ffffff"
     borderopacity="1"
     inkscape:showpageshadow="0"
     inkscape:pageopacity="0"
     inkscape:pagecheckerboard="1"
     inkscape:deskcolor="#505050"><inkscape:page
       x="0"
       y="0"
       width="96.157379"
       height="99.999992"
       id="page2"
       margin="0"
       bleed="0" /></sodipodi:namedview><g
     id="g2"
     transform="translate(-7.0213144,-19.255836)"><g
       id="g3"
       transform="translate(7.3024998,30.867137)"><g
         id="g4"
         transform="translate(-17.102499,-0.46130443)"><path
           d="m 66.53755,-20.705249 a 5.7830101,5.7830101 0 0 0 -3.58107,5.35857 V 0.34812069 A 22.784208,22.784208 0 0 1 56.956783,15.787606 L 54.702137,13.53296 a 3.3332847,3.3332847 0 0 0 -4.713976,4.713977 l 2.291882,2.291882 -4.583964,4.583598 -2.291682,-2.291682 a 3.3332964,3.3332964 0 0 0 -4.71401,4.713976 l 2.291682,2.291682 -4.583964,4.583564 -2.291482,-2.291482 a 3.3332847,3.3332847 0 0 0 -4.713976,4.713976 l 2.291482,2.291483 -16.210423,16.209623 A 3.3288128,3.3288128 0 0 0 12.7988,60.083569 l 13.944977,13.946643 a 3.3286461,3.3286461 0 0 0 4.740646,-4.673772 l 4.614533,-4.614634 a 16.332368,16.332368 0 0 0 4.591431,9.288406 16.499117,16.499117 0 0 0 23.307857,0 L 91.893132,46.140224 a 16.536254,16.536254 0 0 0 4.266334,-15.919461 3.3340133,3.3340133 0 0 0 -6.442638,1.718894 9.8528259,9.8528259 0 0 1 -2.539306,9.486559 L 84.887074,43.71643 71.041373,29.873963 a 22.787908,22.787908 0 0 1 15.439451,-6.00133 h 15.694806 a 5.7964114,5.7964114 0 0 0 4.10038,-9.900032 l -33.419467,-33.4211 a 5.7799431,5.7799431 0 0 0 -6.318993,-1.25675 z M 66.29056,62.310745 52.411055,48.42964 56.993219,43.84751 70.874524,57.727214 Z m -20.886163,7.005491 a 9.8273902,9.8273902 0 0 1 0.0016,-13.881538 l 2.291049,-2.291049 13.879271,13.880905 -2.292082,2.291682 a 9.8283236,9.8283236 0 0 1 -13.879871,0 z M 75.5889,53.013637 61.707196,39.133532 66.290126,34.550636 80.172864,48.430139 Z M 100.08073,17.205206 H 86.480824 a 29.4396,29.4396 0 0 0 -20.952436,8.679215 l -24.829833,24.8298 -0.0098,0.0067 -0.01447,0.0177 L 26.777347,64.635563 22.193983,60.051431 60.946224,21.300657 A 29.438266,29.438266 0 0 0 69.623706,0.34815269 V -13.253389 Z"
           id="path1"
           style="stroke-width:3.33365" /></g></g></g></svg>
