<?xml version="1.0" encoding="UTF-8" standalone="no"?>
<!DOCTYPE svg PUBLIC "-//W3C//DTD SVG 1.1//EN" "http://www.w3.org/Graphics/SVG/1.1/DTD/svg11.dtd">
<svg width="100%" height="100%" viewBox="0 0 1024 1024" version="1.1" xmlns="http://www.w3.org/2000/svg" xmlns:xlink="http://www.w3.org/1999/xlink" xml:space="preserve" xmlns:serif="http://www.serif.com/" style="fill-rule:evenodd;clip-rule:evenodd;stroke-linejoin:round;stroke-miterlimit:2;">
    <g transform="matrix(0.941988,0,0,0.943082,24.658493,29.141855)">
        <circle cx="512" cy="512" r="512" style="fill:white;"/>
    </g>
    <g transform="matrix(2.812517,0,0,2.812514,-207.656494,-194.266335)">
        <path d="M265.37,432.907C164.95,438.151 79.3,360.981 74.083,260.56C68.865,160.14 146.058,74.51 246.48,69.319C346.864,64.131 432.455,141.288 437.67,241.67C442.885,342.053 365.751,427.665 265.37,432.907ZM248.698,87.26C190.115,92.072 143.022,120.194 113.796,170.781C75.033,237.877 91.362,328.965 152.65,377.11C152.873,373.613 152.662,369.172 152.656,365.546L152.65,275.583C142.213,269.405 136.668,259.946 136.409,247.71C136.27,241.136 135.229,190.421 137.333,187.046C140.435,182.07 146.877,184.749 147.273,190.139C147.413,194.686 147.294,199.436 147.293,204.002L147.291,234.881C150.284,234.968 152.831,234.965 155.823,234.881L155.818,204.543C155.814,199.489 155.597,194.17 156.01,189.21C156.379,184.775 162.708,183.189 165.532,186.441C168.244,189.562 167.261,200.231 167.255,205.035L167.244,234.881L175.71,234.881L175.723,202.817C175.723,198.511 175.481,193.668 175.779,189.407C176.257,182.587 186.149,183.103 186.716,189.67C187.039,192.918 186.808,196.57 186.783,199.878L186.774,238.682C186.769,256.186 187.013,263.463 171.533,275.583L171.539,323.107C171.54,327.254 171.123,346.828 171.982,349.051C174.876,350.34 187.58,333.177 190.385,330.096C196.063,335.778 201.819,342.663 206.991,348.872C208.913,348.959 210.279,348.95 212.204,348.872L212.204,288.625C212.202,280.678 212.076,272.409 212.204,264.491C217.985,254.642 232.371,237.891 239.936,228.591L239.923,197.735C239.911,185.588 239.905,180.845 242.268,168.805L253.201,112.344C256.164,97.098 260.793,126.162 260.929,126.821L267.922,161.791C269.105,167.684 271.592,176.934 271.765,182.686C272.199,197.111 271.508,211.773 271.822,226.216C280.35,238.355 291.444,252.312 299.211,264.491L299.211,348.872C301.778,349.064 303.138,348.991 305.699,348.872C311.23,343.208 316.053,337.211 321.084,331.126C325.283,336.227 331.881,344.369 336.64,348.872C338.417,348.964 339.436,348.983 341.206,348.872L341.206,282.566L359.889,282.566L359.889,377.11C362.864,374.035 366.015,371.585 369.07,368.682C447.583,294.063 431.227,166.778 338.847,110.344C310.332,92.925 281.774,86.968 248.698,87.26ZM271.822,305.556C265.711,307.268 264.121,311.817 264.091,317.601C264.035,328.01 263.876,338.464 264.018,348.872L276.146,348.872C278.685,348.887 281.479,348.961 283.997,348.872L283.994,326.553C283.994,317.392 285.773,303.61 271.822,305.556ZM235.012,305.556C224.653,307.967 226.634,318.159 226.635,326.378L226.65,348.872L246.607,348.872L246.623,325.678C246.624,317.127 248.329,304.418 235.012,305.556Z" style="fill-rule:nonzero;"/>
    </g>
    <g transform="matrix(2.812517,0,0,2.812514,-207.656494,-194.266335)">
        <path d="M342.541,211.63C342.542,194.213 342.195,175.594 342.541,158.286C354.428,163.584 363.318,170.292 369.452,181.885C364.324,177.631 361.567,176.466 354.875,175.556C354.716,179.973 354.864,185.244 354.866,189.753L354.879,217.693C354.891,229.935 357.319,240.051 345.237,247.195C341.038,249.447 335.726,250.233 331.029,249.113C305.725,243.081 314.344,204.308 342.541,211.63Z" style="fill-rule:nonzero;"/>
    </g>
</svg>
